<svg width="127" height="20" viewBox="0 0 127 20" fill="none" xmlns="http://www.w3.org/2000/svg">
<path d="M0 10.0008L15.2091 0C15.1513 1.66075 14.7483 3.08493 13.4134 4.0675L13.5615 4.17002C14.3024 4.67786 14.8609 5.34027 15.0995 6.26291C15.1981 6.65419 15.2173 7.06335 15.1558 7.46313C14.9647 8.84473 13.4237 9.7169 12.2621 9.08288C11.9801 8.94455 11.7422 8.72165 11.5775 8.44151C11.4127 8.16137 11.3283 7.83615 11.3346 7.50572C11.3319 7.4221 11.3454 7.33879 11.3743 7.26095C11.4031 7.18312 11.4466 7.11243 11.5022 7.05327C11.5578 6.99411 11.6242 6.94774 11.6973 6.91705C11.7705 6.88636 11.8487 6.87199 11.9273 6.87485C12.0845 6.87485 12.2352 6.94132 12.3464 7.05963C12.4575 7.17794 12.5199 7.3384 12.5199 7.50572C12.5199 7.54357 12.5199 7.58142 12.5199 7.61927C12.5065 7.74623 12.5324 7.87439 12.5936 7.98427C12.6549 8.09415 12.7481 8.17975 12.8592 8.22806C12.9723 8.27856 13.0972 8.29051 13.2169 8.26226C13.3366 8.23401 13.4451 8.16696 13.5275 8.07034C13.6834 7.90384 13.7994 7.69984 13.8657 7.47557C13.9319 7.2513 13.9465 7.01334 13.9082 6.7818C13.7986 5.86705 13.2845 5.3245 12.3658 5.17467C11.5213 5.03588 10.7775 5.27561 10.2026 5.97745C9.87992 6.36825 9.69356 6.86549 9.67494 7.38544C9.65632 7.90539 9.80657 8.41629 10.1004 8.83211C10.1167 8.85735 10.133 8.88258 10.176 8.94409L9.25586 8.83211C8.27501 8.71698 7.42158 8.95355 6.79336 9.83203C6.77365 9.85259 6.75799 9.87713 6.7473 9.90421C6.73661 9.93129 6.7311 9.96037 6.7311 9.98975C6.7311 10.0191 6.73661 10.0482 6.7473 10.0753C6.75799 10.1024 6.77365 10.1269 6.79336 10.1475C7.42158 11.0244 8.27501 11.2673 9.25438 11.1521L10.1582 11.0464C10.1435 11.0833 10.1267 11.1191 10.1078 11.1537C9.89089 11.4673 9.75175 11.8341 9.70326 12.2202C9.65476 12.6062 9.69847 12.999 9.83036 13.3623C9.96224 13.7256 10.178 14.0477 10.4578 14.2987C10.7375 14.5497 11.0722 14.7216 11.4309 14.7985C11.9671 14.9305 12.5295 14.8637 13.0252 14.6093C13.4145 14.3961 13.71 14.0292 13.8485 13.5871C13.9869 13.145 13.9573 12.6627 13.766 12.2435C13.6371 11.9722 13.4578 11.7577 13.157 11.7231C13.0834 11.7111 13.0083 11.7156 12.9364 11.7363C12.8645 11.757 12.7975 11.7935 12.7396 11.8434C12.6817 11.8932 12.6342 11.9554 12.6002 12.026C12.5662 12.0965 12.5465 12.1738 12.5422 12.253C12.5333 12.335 12.5422 12.4107 12.5422 12.499C12.541 12.5828 12.5242 12.6655 12.4927 12.7423C12.4612 12.8191 12.4156 12.8885 12.3587 12.9464C12.3017 13.0042 12.2345 13.0494 12.1609 13.0793C12.0873 13.1092 12.0089 13.1231 11.9302 13.1204C11.7749 13.1175 11.6268 13.0498 11.5179 12.9318C11.4089 12.8138 11.3479 12.655 11.348 12.4896C11.3503 12.1287 11.4557 11.7772 11.6502 11.4816C11.8447 11.1861 12.1191 10.9606 12.437 10.8351C13.6223 10.362 14.9795 11.2499 15.1647 12.57C15.3632 13.9894 14.532 15.1897 13.5675 15.8268C13.5215 15.8568 13.4756 15.8836 13.4089 15.9246C14.7424 16.904 15.1528 18.3329 15.2091 20L0 10.0008Z" fill="#906F45"/>
<path d="M34.5195 15L33.5215 12.2246H29.7002L28.7227 15H27L30.7393 4.96484H32.5166L36.2559 15H34.5195ZM33.0908 10.8164L32.1543 8.0957C32.0859 7.91341 31.9902 7.6263 31.8672 7.23438C31.7487 6.84245 31.6667 6.55534 31.6211 6.37305C31.498 6.93359 31.318 7.54655 31.0811 8.21191L30.1787 10.8164H33.0908ZM39.0107 15H37.4043V7.43945H39.0107V15ZM37.3086 5.43652C37.3086 5.14941 37.3861 4.92839 37.541 4.77344C37.7005 4.61849 37.9261 4.54102 38.2178 4.54102C38.5003 4.54102 38.7191 4.61849 38.874 4.77344C39.0335 4.92839 39.1133 5.14941 39.1133 5.43652C39.1133 5.70996 39.0335 5.92643 38.874 6.08594C38.7191 6.24089 38.5003 6.31836 38.2178 6.31836C37.9261 6.31836 37.7005 6.24089 37.541 6.08594C37.3861 5.92643 37.3086 5.70996 37.3086 5.43652ZM45.1494 7.30273C45.473 7.30273 45.7396 7.32552 45.9492 7.37109L45.792 8.86816C45.5641 8.81348 45.3271 8.78613 45.0811 8.78613C44.4385 8.78613 43.9167 8.99577 43.5156 9.41504C43.1191 9.83431 42.9209 10.3789 42.9209 11.0488V15H41.3145V7.43945H42.5723L42.7842 8.77246H42.8662C43.1169 8.32129 43.4427 7.96354 43.8438 7.69922C44.2493 7.4349 44.6846 7.30273 45.1494 7.30273ZM57.3652 15L56.3672 12.2246H52.5459L51.5684 15H49.8457L53.585 4.96484H55.3623L59.1016 15H57.3652ZM55.9365 10.8164L55 8.0957C54.9316 7.91341 54.8359 7.6263 54.7129 7.23438C54.5944 6.84245 54.5124 6.55534 54.4668 6.37305C54.3438 6.93359 54.1637 7.54655 53.9268 8.21191L53.0244 10.8164H55.9365ZM65.3291 12.8467C65.3291 13.585 65.0602 14.1523 64.5225 14.5488C63.9847 14.9408 63.2145 15.1367 62.2119 15.1367C61.2048 15.1367 60.3958 14.984 59.7852 14.6787V13.291C60.6738 13.7012 61.501 13.9062 62.2666 13.9062C63.2555 13.9062 63.75 13.6077 63.75 13.0107C63.75 12.8193 63.6953 12.6598 63.5859 12.5322C63.4766 12.4046 63.2965 12.2725 63.0459 12.1357C62.7952 11.999 62.4466 11.8441 62 11.6709C61.1296 11.3337 60.5394 10.9964 60.2295 10.6592C59.9242 10.3219 59.7715 9.88444 59.7715 9.34668C59.7715 8.69954 60.0312 8.19824 60.5508 7.84277C61.0749 7.48275 61.7858 7.30273 62.6836 7.30273C63.5723 7.30273 64.4131 7.48275 65.2061 7.84277L64.6865 9.05273C63.8708 8.71549 63.1849 8.54688 62.6289 8.54688C61.7812 8.54688 61.3574 8.78841 61.3574 9.27148C61.3574 9.50846 61.4668 9.70898 61.6855 9.87305C61.9089 10.0371 62.3919 10.2627 63.1348 10.5498C63.7591 10.7913 64.2126 11.0124 64.4951 11.2129C64.7777 11.4134 64.9873 11.6458 65.124 11.9102C65.2607 12.1699 65.3291 12.4821 65.3291 12.8467ZM69.8887 13.8379C70.2806 13.8379 70.6725 13.7764 71.0645 13.6533V14.8633C70.8867 14.9408 70.6566 15.0046 70.374 15.0547C70.096 15.1094 69.8066 15.1367 69.5059 15.1367C67.9837 15.1367 67.2227 14.3346 67.2227 12.7305V8.65625H66.1904V7.94531L67.2979 7.35742L67.8447 5.75781H68.8359V7.43945H70.9893V8.65625H68.8359V12.7031C68.8359 13.0905 68.9316 13.3776 69.123 13.5645C69.319 13.7467 69.5742 13.8379 69.8887 13.8379ZM77.3125 15L76.9912 13.9473H76.9365C76.5719 14.4076 76.2051 14.722 75.8359 14.8906C75.4668 15.0547 74.9928 15.1367 74.4141 15.1367C73.6712 15.1367 73.0902 14.9362 72.6709 14.5352C72.2562 14.1341 72.0488 13.5667 72.0488 12.833C72.0488 12.0537 72.3382 11.4658 72.917 11.0693C73.4958 10.6729 74.3776 10.4564 75.5625 10.4199L76.8682 10.3789V9.97559C76.8682 9.49251 76.7542 9.13249 76.5264 8.89551C76.3031 8.65397 75.9544 8.5332 75.4805 8.5332C75.0931 8.5332 74.7217 8.59017 74.3662 8.7041C74.0107 8.81803 73.6689 8.95247 73.3408 9.10742L72.8213 7.95898C73.2314 7.74479 73.6803 7.58301 74.168 7.47363C74.6556 7.3597 75.1159 7.30273 75.5488 7.30273C76.5104 7.30273 77.235 7.51237 77.7227 7.93164C78.2148 8.35091 78.4609 9.00944 78.4609 9.90723V15H77.3125ZM74.9199 13.9062C75.5033 13.9062 75.9704 13.7445 76.3213 13.4209C76.6768 13.0928 76.8545 12.6348 76.8545 12.0469V11.3906L75.8838 11.4316C75.1273 11.459 74.5758 11.5866 74.2295 11.8145C73.8877 12.0378 73.7168 12.3818 73.7168 12.8467C73.7168 13.1839 73.8171 13.446 74.0176 13.6328C74.2181 13.8151 74.5189 13.9062 74.9199 13.9062ZM87.3545 15H85.7412V10.3516C85.7412 9.76823 85.6227 9.33301 85.3857 9.0459C85.1533 8.75879 84.7819 8.61523 84.2715 8.61523C83.5924 8.61523 83.0957 8.81576 82.7812 9.2168C82.4668 9.61784 82.3096 10.29 82.3096 11.2334V15H80.7031V7.43945H81.9609L82.1865 8.43066H82.2686C82.4964 8.07064 82.82 7.79264 83.2393 7.59668C83.6585 7.40072 84.1234 7.30273 84.6338 7.30273C86.4476 7.30273 87.3545 8.22559 87.3545 10.0713V15ZM94.3203 15L93.999 13.9473H93.9443C93.5798 14.4076 93.2129 14.722 92.8438 14.8906C92.4746 15.0547 92.0007 15.1367 91.4219 15.1367C90.679 15.1367 90.098 14.9362 89.6787 14.5352C89.264 14.1341 89.0566 13.5667 89.0566 12.833C89.0566 12.0537 89.346 11.4658 89.9248 11.0693C90.5036 10.6729 91.3854 10.4564 92.5703 10.4199L93.876 10.3789V9.97559C93.876 9.49251 93.762 9.13249 93.5342 8.89551C93.3109 8.65397 92.9622 8.5332 92.4883 8.5332C92.1009 8.5332 91.7295 8.59017 91.374 8.7041C91.0186 8.81803 90.6768 8.95247 90.3486 9.10742L89.8291 7.95898C90.2393 7.74479 90.6882 7.58301 91.1758 7.47363C91.6634 7.3597 92.1237 7.30273 92.5566 7.30273C93.5182 7.30273 94.2428 7.51237 94.7305 7.93164C95.2227 8.35091 95.4688 9.00944 95.4688 9.90723V15H94.3203ZM91.9277 13.9062C92.5111 13.9062 92.9782 13.7445 93.3291 13.4209C93.6846 13.0928 93.8623 12.6348 93.8623 12.0469V11.3906L92.8916 11.4316C92.1351 11.459 91.5837 11.5866 91.2373 11.8145C90.8955 12.0378 90.7246 12.3818 90.7246 12.8467C90.7246 13.1839 90.8249 13.446 91.0254 13.6328C91.2259 13.8151 91.5267 13.9062 91.9277 13.9062Z" fill="#202123"/>
</svg>
